<svg width="185" height="79" viewBox="0 0 185 79" fill="none" xmlns="http://www.w3.org/2000/svg">
<path d="M182.159 38.3108C180.82 34.8203 179.105 32.0342 177.004 29.9579C174.903 27.8816 172.352 26.192 169.351 24.8784C166.35 23.5701 163.418 22.6803 160.555 22.2195C157.692 21.7587 154.622 21.5256 151.351 21.5256C141.206 21.5256 133.188 24.1475 127.297 29.3859C125.566 30.9272 124.095 32.6274 122.873 34.4919C122.74 34.137 122.592 33.7768 122.428 33.4008C121.856 32.0925 121.105 30.8901 120.179 29.799C119.253 28.7079 117.982 27.6274 116.373 26.5627C114.765 25.4981 112.923 24.5977 110.848 23.8614C108.773 23.1252 106.196 22.5267 103.116 22.0606C100.036 21.5998 96.6378 21.3667 92.9277 21.3667C79.5113 21.3667 69.9372 25.1591 64.2054 32.7493C64.0731 32.9294 63.9408 33.1147 63.8138 33.3001C63.3004 32.0554 62.6812 30.9537 61.9561 30.0056C61.0564 28.8297 59.8815 27.781 58.4366 26.8541C56.9918 25.9271 55.6157 25.175 54.3032 24.603C52.9959 24.0309 51.3976 23.5383 49.5188 23.1305C47.6346 22.7227 46.0257 22.4101 44.692 22.1877C43.353 21.9705 41.7335 21.8063 39.8229 21.6951C37.9124 21.5839 36.5098 21.5309 35.6101 21.5309H32.0536C28.1795 21.5309 24.6335 21.8063 21.4157 22.3519C18.1978 22.8974 15.5093 23.5966 13.3552 24.4388C11.2012 25.2862 9.31705 26.3244 7.70814 27.5479C6.09922 28.7768 4.8449 29.9897 3.94518 31.192C3.04546 32.3944 2.32039 33.6762 1.77526 35.0427C1.23014 36.4093 0.875539 37.5957 0.711472 38.6074C0.547405 39.6191 0.468018 40.6413 0.468018 41.6795H21.2516C21.2516 40.9167 21.3469 40.2335 21.5374 39.6297C21.7279 39.0311 22.1513 38.3479 22.8076 37.5851C23.4639 36.8224 24.5806 36.2239 26.163 35.7843C27.7455 35.3499 29.709 35.1275 32.0536 35.1275C32.2176 35.1275 32.514 35.154 32.9533 35.2069H35.4884C41.543 35.4241 44.5703 37.172 44.5703 40.4453C44.5703 41.1551 44.3798 41.7536 43.9987 42.2462C43.6177 42.7388 42.9455 43.189 41.9929 43.5969C41.0402 44.0047 39.6218 44.3066 37.7377 44.4973C35.8536 44.688 33.5249 44.8098 30.741 44.8681C30.524 44.8151 30.36 44.7886 30.2488 44.7886V55.7633C34.1229 55.7633 37.1502 55.954 39.3307 56.3354C41.5112 56.7167 42.9296 57.2093 43.5859 57.8079C44.2422 58.4117 44.5703 59.1744 44.5703 60.1013C44.5703 63.2105 41.8976 64.9584 36.5522 65.3397C35.3508 65.3927 34.1229 65.4192 32.8686 65.4192C30.1377 65.4192 27.9836 65.2709 26.4065 64.969C24.824 64.6671 23.665 64.148 22.9293 63.4117C22.1937 62.6755 21.7279 61.9128 21.5374 61.1183C21.3469 60.3291 21.2516 59.1956 21.2516 57.7178H0.47331C0.47331 60.6098 0.949634 63.2317 1.90757 65.5781C2.86022 67.9245 3.99281 69.826 5.30535 71.2667C6.61259 72.7127 8.34324 73.968 10.5026 75.0327C12.6566 76.0973 14.5937 76.8759 16.3137 77.3685C18.0338 77.8611 20.1455 78.2424 22.6541 78.5126C25.1628 78.788 27.0151 78.9363 28.2165 78.9628C29.185 78.984 30.3864 78.9999 31.8207 78.9999H31.8154H68.3124H152.331L152.294 78.9734C162.254 78.7086 169.981 76.2615 175.459 71.6322C181.27 66.7169 184.175 59.6511 184.175 50.4243C184.175 45.8374 183.509 41.8013 182.17 38.3055L182.159 38.3108ZM74.1923 51.044C72.6099 51.7802 70.8104 52.8025 68.794 54.1161C67.2115 55.1436 65.899 56.2665 64.8511 57.4795C64.7453 57.0081 64.6129 56.5367 64.4542 56.0811C63.962 54.6616 63.1734 53.4063 62.0831 52.3152C60.9929 51.2241 59.6539 50.4878 58.0714 50.1065C59.2728 49.7251 60.3207 49.1637 61.2205 48.4274C62.1202 47.6912 62.8452 46.8702 63.3904 45.9698C63.6656 45.5143 63.909 45.0376 64.1154 44.5344H68.3018L79.8394 44.6138C79.8923 44.0683 79.9188 43.671 79.9188 43.4274C79.9188 43.1837 80.0141 42.6911 80.2046 41.9549C80.3951 41.2187 80.6386 40.6466 80.9403 40.2335C81.2366 39.8256 81.7024 39.3066 82.3322 38.6762C82.9567 38.0512 83.7241 37.5586 84.6238 37.2038C85.5235 36.8489 86.6826 36.547 88.101 36.3033C89.5194 36.0597 91.1283 35.9326 92.9277 35.9326C95.2194 35.9326 97.1564 36.0703 98.7389 36.3404C100.321 36.6158 101.491 36.9813 102.258 37.4474C103.021 37.9135 103.555 38.3637 103.851 38.7981C104.153 39.2377 104.301 39.6985 104.301 40.1911C104.301 41.2292 103.957 42.1138 103.28 42.85C102.597 43.5863 101.396 44.2537 99.6809 44.8575C97.9609 45.4613 95.6322 45.9751 92.6843 46.4147C92.5731 46.4677 92.4091 46.4941 92.1921 46.4941C89.7364 46.9338 87.8152 47.2728 86.4233 47.5164C85.0313 47.7601 83.0414 48.2262 80.4481 48.9094C77.8547 49.5927 75.7695 50.3025 74.187 51.0387L74.1923 51.044ZM86.0581 61.4043C86.8784 61.2931 88.2968 61.1024 90.3132 60.8323C92.3297 60.5621 94.1609 60.3132 95.7963 60.096C97.5428 59.8259 98.8765 59.6034 99.808 59.4392C100.734 59.275 102.084 59.0155 103.857 58.6606C105.63 58.3057 107.048 57.9509 108.112 57.596C109.176 57.2411 110.499 56.775 112.081 56.203C113.664 55.6309 114.929 55.0165 115.887 54.3597C116.702 53.8036 117.575 53.1203 118.506 52.3258C118.623 54.6616 119.004 56.9233 119.649 59.1108C120.02 60.3662 120.517 62.0664 122.021 65.4722H81.5013C81.5013 62.0664 85.243 61.5155 86.0634 61.4043H86.0581ZM163.911 56.7803C163.556 58.2846 163.133 59.5134 162.64 60.4668C162.148 61.4202 161.481 62.2253 160.635 62.8821C159.788 63.5389 159.026 64.0262 158.343 64.3546C157.66 64.6829 156.813 64.9425 155.808 65.1332C154.797 65.3238 154.019 65.4192 153.474 65.4192H149.055C148.509 65.4192 147.716 65.3238 146.684 65.1332C145.646 64.9425 144.799 64.6988 144.148 64.3969C143.492 64.095 142.756 63.6077 141.941 62.9244C141.121 62.2412 140.47 61.4361 139.978 60.5092C139.486 59.5822 139.078 58.3958 138.75 56.9498C138.422 55.5038 138.258 52.6224 138.258 50.7686C138.258 49.3491 138.353 48.0408 138.544 46.8384C138.734 45.6361 139.004 44.5979 139.364 43.7293C139.719 42.8553 140.084 42.0502 140.47 41.314C140.851 40.5778 141.343 39.9633 141.941 39.4708C142.539 38.9782 143.085 38.5438 143.577 38.1625C144.069 37.7811 144.651 37.4792 145.334 37.262C146.017 37.0449 146.588 36.8648 147.054 36.7324C147.514 36.5947 148.075 36.4993 148.732 36.4463C149.388 36.3934 149.864 36.3669 150.166 36.3669H151.351C152.225 36.3669 152.934 36.3828 153.479 36.4093C154.024 36.4358 154.802 36.5311 155.813 36.6953C156.824 36.8595 157.665 37.1031 158.348 37.4315C159.031 37.7599 159.793 38.279 160.64 38.9888C161.487 39.6985 162.153 40.5301 162.646 41.4888C163.138 42.4422 163.556 43.6975 163.916 45.2547C164.27 46.8119 164.445 48.544 164.445 50.4561C164.445 52.3682 164.265 55.3025 163.916 56.8015L163.911 56.7803Z" fill="white"/>
<path d="M33.4454 15.1115L33.5513 15.62C33.5513 15.8318 33.4401 16.0861 33.2179 16.3827C32.6304 17.1507 31.6883 18.0299 30.3917 19.0257C29.095 20.0215 28.1371 20.5194 27.5232 20.5194C26.9092 20.5194 26.4276 20.3393 26.0783 19.9791C25.729 19.6189 25.5543 19.2058 25.5543 18.7397C25.5543 18.1888 26.1312 16.9653 27.2903 15.0744C29.0262 12.2672 31.2491 8.98322 33.9482 5.22787C33.3766 5.8158 31.863 7.40481 29.402 9.98959C23.956 15.6994 20.7752 18.9304 19.8596 19.6878C19.7062 19.8149 19.4892 19.8732 19.1981 19.8732C18.907 19.8732 18.6053 19.7567 18.2825 19.5183C17.9596 19.28 17.8009 19.0151 17.8009 18.7238V18.655C17.8379 18.2789 18.6953 16.4462 20.3783 13.157C22.0613 9.86776 23.4744 7.24591 24.6176 5.30202C22.9346 7.15586 21.2304 9.22686 19.5103 11.5097C16.2396 15.8424 13.8474 19.5342 12.3337 22.5851C12.2014 22.8711 12.0373 23.0141 11.8415 23.0141C11.6457 23.0141 11.3599 22.9665 10.9841 22.8658C10.2008 22.6539 9.8092 22.2779 9.8092 21.7429C9.8092 21.4198 10.4655 20.2757 11.7727 18.3001C13.0853 16.3244 14.6042 14.1687 16.3295 11.8275C18.0602 9.4864 19.849 7.23001 21.7014 5.06367C24.2577 2.06575 25.9037 0.566792 26.634 0.566792C26.7504 0.566792 26.8616 0.593275 26.9674 0.651539C27.0733 0.709802 27.1421 0.736285 27.1686 0.736285C27.195 0.736285 27.2215 0.720395 27.2479 0.693912C27.3644 0.550902 27.592 0.482045 27.936 0.482045C28.28 0.482045 28.6134 0.550902 28.9362 0.683319C29.2591 0.815736 29.4232 0.969339 29.4232 1.13883C29.4232 1.24477 28.9786 2.09753 28.0842 3.69183C25.0992 8.98851 23.0933 12.6273 22.0666 14.6083C23.0457 13.4218 24.4482 11.8487 26.2688 9.88365C28.0894 7.92388 30.0053 5.96411 32.0112 4.00963C34.6204 1.47782 36.1817 0.211914 36.6897 0.211914C36.8961 0.211914 37.1555 0.254288 37.4624 0.344331C38.0129 0.503231 38.5474 0.582682 39.0555 0.582682C39.1984 0.609165 39.3201 0.667429 39.4207 0.762769C39.5212 0.858109 39.5741 0.953449 39.5741 1.04879C39.5741 1.14413 39.5477 1.22888 39.4948 1.28714C36.5998 5.13783 34.1546 8.5383 32.17 11.4832C30.18 14.4282 28.9574 16.4145 28.4917 17.4526C29.4284 17.2566 30.8204 16.139 32.678 14.0945C32.7574 13.9886 32.8156 13.9144 32.8527 13.8826C32.8897 13.8456 32.9215 13.8138 32.9479 13.7767C33.1014 13.5966 33.2179 13.7079 33.2973 14.1104C33.3343 14.3435 33.3555 14.5077 33.3713 14.5977C33.3872 14.693 33.3978 14.7884 33.4137 14.8943C33.4296 14.9949 33.4349 15.0638 33.4349 15.1009L33.4454 15.1115Z" fill="#FF1B1C"/>
<path d="M43.7923 9.88369C44.4697 9.88369 44.8084 10.1167 44.8084 10.5776C44.8084 10.8265 44.7502 11.0119 44.6338 11.1284C44.5173 11.2449 44.2686 11.6316 43.8928 12.2831C43.5118 12.9399 43.0937 13.7768 42.6385 14.799C42.1781 15.8213 41.8817 16.6899 41.7494 17.4156C41.7229 17.5056 41.707 17.6274 41.707 17.7916C41.707 18.2842 41.8393 18.5279 42.1093 18.5279C42.3792 18.5279 42.6914 18.4008 43.0566 18.1465C43.4218 17.8923 43.7446 17.6221 44.0304 17.3308C44.3162 17.0395 44.5914 16.7429 44.8666 16.441C45.1366 16.1391 45.3006 15.9643 45.3536 15.9166C45.4065 15.8742 45.4859 15.8478 45.5917 15.8478C45.7611 15.8478 45.8616 15.9749 45.8987 16.2344C45.9357 16.4939 45.9516 16.7588 45.9516 17.0395C45.9516 17.3202 45.9251 17.5056 45.8722 17.6168C45.6129 18.1253 45.0466 18.7344 44.168 19.4495C43.2895 20.1645 42.4903 20.5194 41.7758 20.5194C41.0613 20.5194 40.5321 20.3023 40.1934 19.8626C39.8547 19.4283 39.6853 18.941 39.6853 18.4113C39.6853 17.8817 39.7753 17.4156 39.9552 17.013C39.2143 17.977 38.3675 18.7927 37.4095 19.4601C36.4516 20.1275 35.6683 20.4612 35.065 20.4612C34.4616 20.4612 33.9641 20.2758 33.5831 19.9103C33.0909 19.4548 32.8474 18.8245 32.8474 18.0194C32.8474 17.2143 33.0274 16.3986 33.3872 15.5829C33.7471 14.7672 34.2235 14.0204 34.8109 13.3477C35.3984 12.675 36.0441 12.0606 36.748 11.5098C38.2246 10.3498 39.59 9.77246 40.8391 9.77246C41.3207 9.77246 41.7123 9.85191 42.014 10.0108C42.3157 10.1697 42.5062 10.371 42.5909 10.6146C42.8026 10.2915 42.9878 10.0903 43.1307 10.0055C43.2789 9.92077 43.4959 9.87839 43.7923 9.87839V9.88369ZM42.014 11.3668C40.4898 11.3668 38.9126 12.2142 37.2825 13.9092C36.7056 14.5183 36.1711 15.2439 35.6842 16.0914C35.1973 16.9389 34.9538 17.5162 34.9538 17.8287C34.9538 18.1412 35.0438 18.2948 35.2237 18.2948C35.4725 18.2948 36.1658 17.8022 37.309 16.817C38.4522 15.8319 39.209 15.1062 39.5795 14.6454C39.987 14.1263 40.802 13.0352 42.014 11.3668Z" fill="#FF1B1C"/>
<path d="M51.17 17.9875C51.17 18.3794 51.4399 18.5754 51.9745 18.5754C52.2603 18.5754 52.6202 18.4324 53.0489 18.1464C53.4828 17.8604 53.8692 17.5478 54.2185 17.2089C55.1447 16.2925 55.6686 15.8317 55.7957 15.8317C56.0285 15.8317 56.145 16.1654 56.145 16.8328C56.145 17.5002 55.9333 17.961 55.5152 18.2099C54.2397 19.3593 53.2553 20.0585 52.562 20.3127C52.1703 20.4451 51.7363 20.5087 51.2653 20.4981C50.7943 20.4875 50.3232 20.2862 49.8628 19.8837C49.397 19.4811 49.1695 18.9938 49.1695 18.4165C49.1695 17.8392 49.323 17.1877 49.6246 16.4567C49.9263 15.7258 50.2386 15.1008 50.5561 14.5764C50.8737 14.052 51.26 13.4482 51.7257 12.7544C52.1915 12.0658 52.4349 11.6315 52.4614 11.462L52.4349 11.4355C52.1386 11.462 51.4135 12.0446 50.2491 13.1728C49.0848 14.3063 48.1269 15.2915 47.37 16.1283C46.6132 16.9652 45.7082 18.0881 44.655 19.4864C44.3586 19.8678 44.1204 20.0638 43.9352 20.0638C43.75 20.0638 43.4959 20.0055 43.1784 19.8837C42.8608 19.7619 42.6703 19.6771 42.5962 19.6241C42.5274 19.5712 42.4904 19.4917 42.4904 19.3858C42.4904 19.2799 42.5221 19.1474 42.5856 18.9885C42.6491 18.8349 42.7074 18.7025 42.7656 18.6019C42.8238 18.5012 42.919 18.3423 43.0514 18.1252C43.1837 17.9133 43.4483 17.4578 43.8452 16.7692C44.2422 16.0807 44.8508 15.0478 45.6711 13.6707C46.4915 12.2988 46.9837 11.4673 47.1425 11.1812C47.4812 10.5933 47.7564 10.1643 47.9734 9.89944C48.3756 9.39096 49.053 9.13672 50.0057 9.13672C50.2174 9.13672 50.3285 9.26914 50.3285 9.53927C50.3285 9.9577 49.9422 10.7469 49.1642 11.9069L48.6032 12.7491C50.1433 11.0382 51.4452 9.95241 52.509 9.49689C53.0277 9.27443 53.4934 9.1632 53.9062 9.1632C54.3191 9.1632 54.6525 9.27443 54.8959 9.49689C55.1394 9.71935 55.2611 9.9683 55.2611 10.2384C55.2611 10.5086 55.1659 10.837 54.9806 11.213C54.7954 11.5944 54.6049 11.9334 54.4143 12.23C54.2238 12.5266 53.9698 12.908 53.6575 13.3582C53.3452 13.8137 53.1759 14.0626 53.1494 14.0997C53.123 14.1421 53.0542 14.248 52.943 14.4228C52.8319 14.5976 52.7472 14.7247 52.6943 14.8042C52.6413 14.8836 52.5514 15.0266 52.4244 15.2279C52.2973 15.4292 52.1968 15.5934 52.1227 15.7311C52.0486 15.8635 51.9533 16.0277 51.8422 16.2237C51.731 16.4197 51.6411 16.5891 51.5723 16.7322C51.5035 16.8752 51.4347 17.0288 51.3659 17.1983C51.2388 17.5108 51.1806 17.7703 51.1806 17.9716L51.17 17.9875Z" fill="#FF1B1C"/>
<path d="M64.5387 9.88369C65.2162 9.88369 65.5549 10.1167 65.5549 10.5776C65.5549 10.8265 65.4967 11.0119 65.3802 11.1284C65.2638 11.2449 65.0151 11.6316 64.6393 12.2831C64.2582 12.9399 63.8401 13.7768 63.385 14.799C62.9245 15.8213 62.6281 16.6899 62.4958 17.4156C62.4694 17.5056 62.4535 17.6274 62.4535 17.7916C62.4535 18.2842 62.5858 18.5279 62.8557 18.5279C63.1256 18.5279 63.4379 18.4008 63.8031 18.1465C64.1683 17.8923 64.4911 17.6221 64.7769 17.3308C65.0627 17.0395 65.3379 16.7429 65.6131 16.441C65.883 16.1391 66.0471 15.9643 66.1 15.9166C66.1529 15.8742 66.2323 15.8478 66.3382 15.8478C66.5075 15.8478 66.6081 15.9749 66.6451 16.2344C66.6822 16.4939 66.6981 16.7588 66.6981 17.0395C66.6981 17.3202 66.6716 17.5056 66.6187 17.6168C66.3593 18.1253 65.793 18.7344 64.9145 19.4495C64.0359 20.1645 63.2368 20.5194 62.5223 20.5194C61.8078 20.5194 61.2786 20.3023 60.9398 19.8626C60.6011 19.4283 60.4318 18.941 60.4318 18.4113C60.4318 17.8817 60.5217 17.4156 60.7017 17.013C59.9607 17.977 59.1139 18.7927 58.156 19.4601C57.1981 20.1275 56.4148 20.4612 55.8114 20.4612C55.2081 20.4612 54.7106 20.2758 54.3295 19.9103C53.8373 19.4548 53.5939 18.8245 53.5939 18.0194C53.5939 17.2143 53.7738 16.3986 54.1337 15.5829C54.4936 14.7672 54.9699 14.0204 55.5574 13.3477C56.1448 12.675 56.7905 12.0606 57.4944 11.5098C58.971 10.3498 60.3365 9.77246 61.5855 9.77246C62.0671 9.77246 62.4588 9.85191 62.7605 10.0108C63.0621 10.1697 63.2527 10.371 63.3373 10.6146C63.549 10.2915 63.7343 10.0903 63.8772 10.0055C64.0254 9.92077 64.2424 9.87839 64.5387 9.87839V9.88369ZM62.7605 11.3668C61.2362 11.3668 59.6591 12.2142 58.029 13.9092C57.4521 14.5183 56.9176 15.2439 56.4306 16.0914C55.9437 16.9389 55.7003 17.5162 55.7003 17.8287C55.7003 18.1412 55.7903 18.2948 55.9702 18.2948C56.2189 18.2948 56.9123 17.8022 58.0554 16.817C59.1986 15.8319 59.9554 15.1062 60.3259 14.6454C60.7334 14.1263 61.5485 13.0352 62.7605 11.3668Z" fill="#FF1B1C"/>
<path d="M95.6216 1.53083C95.521 1.53083 95.4734 1.46197 95.4734 1.32956C95.4734 1.19714 95.5104 1.10709 95.5845 1.07002C95.6586 1.02764 95.7909 0.964084 95.9709 0.868744C96.1508 0.773404 96.2778 0.71514 96.3519 0.68336C96.4207 0.65158 96.5319 0.598613 96.6854 0.529757C96.8388 0.4609 96.9606 0.407933 97.0505 0.38145C97.1458 0.354966 97.2569 0.317889 97.3893 0.275516C97.6115 0.211956 97.892 0.180176 98.2255 0.180176C98.5589 0.180176 98.9029 0.296703 99.2522 0.529757C99.6068 0.762811 99.7815 1.06472 99.7815 1.44079C99.7815 2.2141 99.4427 3.24695 98.7653 4.52345C98.0879 5.80525 97.2199 7.13472 96.1561 8.51715C95.0976 9.89958 93.9068 11.3032 92.589 12.7333C91.2711 14.1581 89.9798 15.4346 88.7255 16.5575C87.4711 17.6804 86.2856 18.602 85.1742 19.3118C84.0628 20.0268 83.2107 20.3817 82.6126 20.3817C81.3477 20.3817 80.7126 19.8044 80.7126 18.655C80.7126 17.0395 81.6282 14.709 83.4541 11.6581C79.8976 15.8689 76.9232 18.5861 74.5257 19.8044C73.9012 20.1275 73.4249 20.2864 73.0968 20.2864C72.7686 20.2864 72.3611 20.0851 71.8848 19.6773C71.4084 19.2694 71.1703 18.8722 71.1703 18.4802C71.1703 16.2609 72.7104 13.1517 75.7959 9.15805C76.9709 7.6326 78.4369 5.92707 80.194 4.04675C78.6592 5.37622 77.4948 6.0383 76.6903 6.0383C76.2617 6.0383 75.9441 5.82644 75.743 5.408C75.5578 5.10609 75.4625 4.81477 75.4625 4.54464C75.4625 4.27451 75.6424 3.9779 75.997 3.6548C76.3516 3.3317 76.5633 3.1728 76.6268 3.1728C76.6903 3.1728 76.7486 3.19399 76.8015 3.24166C76.8544 3.28403 76.8809 3.3264 76.8809 3.36348C76.7539 3.4959 76.6956 3.58594 76.6956 3.62302C76.6956 3.66009 76.7486 3.68128 76.8544 3.68128C76.9603 3.68128 77.8547 3.1728 79.5271 2.15054C81.2048 1.12828 82.1204 0.6198 82.2792 0.6198C82.745 0.6198 83.1895 0.74692 83.6182 1.00116C84.0469 1.2554 84.2586 1.46727 84.2586 1.64206C84.2586 1.81685 84.1686 2.04461 83.9887 2.33063C83.8087 2.61665 82.7502 4.01497 80.8079 6.5256C78.8656 9.03622 77.4525 10.9377 76.5686 12.2248C75.6848 13.5119 75.0391 14.5713 74.6316 15.3975C74.224 16.2238 74.0176 16.7217 74.0176 16.9018C74.0176 17.0819 74.0441 17.1719 74.097 17.1719C74.4728 17.1719 75.8118 16.0437 78.114 13.782C80.4163 11.5204 82.6126 9.28517 84.6979 7.08175C86.7831 4.87303 87.9157 3.6495 88.101 3.41115C88.2809 3.1728 88.482 2.99801 88.6937 2.89737C88.9054 2.79674 89.2282 2.74377 89.6569 2.74377C90.853 2.74377 91.4458 2.97153 91.4458 3.42704C91.4458 3.61242 91.1865 4.00967 90.6625 4.61879C90.1386 5.22791 89.7734 5.66754 89.5617 5.94296C88.445 7.36247 87.2065 9.35932 85.8411 11.9388C84.4703 14.5183 83.7876 16.1656 83.7876 16.8912C83.7876 17.0872 83.8511 17.1878 83.9834 17.1878C84.1157 17.1878 84.4968 16.9336 85.1319 16.4304C85.767 15.9272 86.6085 15.1751 87.6511 14.1687C88.6937 13.1676 89.8792 11.9229 91.2076 10.4451C92.5361 8.96737 93.801 7.3201 95.0129 5.51393C96.2196 3.70776 96.823 2.57428 96.823 2.10817C96.823 1.64206 96.643 1.4143 96.2884 1.4143L95.6057 1.54672L95.6216 1.53083Z" fill="#FF1B1C"/>
<path d="M98.1091 24.4917C98.0667 24.5341 97.9291 24.7618 97.7016 25.1697C97.474 25.5775 97.2305 25.9854 96.9712 26.3985C96.7119 26.8116 96.3943 27.2089 96.0133 27.585C95.6322 27.961 95.3199 28.1623 95.0659 28.1941C94.8119 28.2258 94.6478 28.2417 94.579 28.2417C93.7587 28.2417 93.3511 27.8286 93.3511 26.997C93.3511 26.0224 93.8539 24.8889 94.8595 23.586C95.2406 23.0934 95.7222 22.569 96.3044 22.0022C96.8812 21.4355 97.1988 21.1124 97.2517 21.0383C97.3046 20.9641 97.9715 19.7141 99.2576 17.2882C98.4002 18.2257 97.6063 18.9831 96.8759 19.5711C96.1456 20.1537 95.4417 20.4821 94.7642 20.5563H94.669C94.3197 20.5563 93.9757 20.445 93.6422 20.2173C93.3035 19.9895 93.1342 19.5923 93.1342 19.0202C93.1342 18.1727 93.3617 17.3518 93.8169 16.5573C93.9757 16.2818 94.2562 15.8104 94.6531 15.1536C95.05 14.4916 95.4152 13.856 95.7539 13.2415C96.0768 12.7489 96.4049 12.1822 96.7436 11.5307C97.0823 10.8792 97.3417 10.4131 97.5163 10.1324C97.6963 9.85166 97.8656 9.70865 98.0244 9.70865C98.1832 9.70865 98.3896 9.80929 98.6436 10.0106C98.8977 10.2118 99.0247 10.4502 99.0247 10.7256C99.0247 11.001 98.4425 12.2034 97.2729 14.3221C96.1032 16.446 95.5211 17.6537 95.5211 17.945C95.5211 18.0138 95.5581 18.0509 95.6269 18.0509C95.8651 18.0509 96.3996 17.7119 97.2252 17.0287C98.0509 16.3454 98.9612 15.4714 99.9615 14.4015C101.073 13.2151 101.946 12.1292 102.581 11.1494C102.661 11.0222 102.724 10.9269 102.777 10.8633C102.825 10.7945 102.888 10.7097 102.962 10.5932C103.036 10.482 103.1 10.3972 103.148 10.3337C103.195 10.2701 103.253 10.1959 103.322 10.1112C103.391 10.0265 103.449 9.96289 103.502 9.91522C103.555 9.87285 103.613 9.82518 103.677 9.78281C103.777 9.69276 103.883 9.65039 104.005 9.65039C104.127 9.65039 104.307 9.67687 104.555 9.72984C104.799 9.78281 104.947 9.84107 104.995 9.90463C105.042 9.96819 105.095 10.0265 105.148 10.0794C105.238 10.1801 105.28 10.2701 105.28 10.3548C105.28 10.4396 105.243 10.5508 105.175 10.6885C105.106 10.8263 104.688 11.536 103.931 12.8072C101.703 16.5732 100.168 19.3168 99.3317 21.0488C100.687 19.9048 102.592 18.2151 105.053 15.9799C105.153 15.9005 105.249 15.8581 105.349 15.8581C105.624 15.8581 105.762 16.2818 105.762 17.1293C105.762 17.3782 105.72 17.5424 105.63 17.6219C102.962 19.6717 100.459 21.9652 98.1038 24.497L98.1091 24.4917Z" fill="#FF1B1C"/>
<path d="M111.171 17.9875C111.171 18.3794 111.441 18.5754 111.975 18.5754C112.261 18.5754 112.621 18.4324 113.05 18.1464C113.484 17.8604 113.87 17.5478 114.219 17.2089C115.146 16.2925 115.669 15.8317 115.797 15.8317C116.029 15.8317 116.146 16.1654 116.146 16.8328C116.146 17.5002 115.934 17.961 115.516 18.2099C114.241 19.3593 113.256 20.0585 112.563 20.3127C112.171 20.4451 111.737 20.5087 111.266 20.4981C110.795 20.4875 110.324 20.2862 109.864 19.8837C109.398 19.4811 109.17 18.9938 109.17 18.4165C109.17 17.8392 109.324 17.1877 109.625 16.4567C109.927 15.7258 110.239 15.1008 110.557 14.5764C110.875 14.052 111.261 13.4482 111.727 12.7544C112.192 12.0658 112.436 11.6315 112.462 11.462L112.436 11.4355C112.139 11.462 111.414 12.0446 110.25 13.1728C109.086 14.3063 108.128 15.2915 107.371 16.1283C106.614 16.9652 105.709 18.0881 104.656 19.4864C104.359 19.8678 104.121 20.0638 103.936 20.0638C103.751 20.0638 103.497 20.0055 103.179 19.8837C102.862 19.7619 102.671 19.6771 102.597 19.6241C102.528 19.5712 102.491 19.4917 102.491 19.3858C102.491 19.2799 102.523 19.1474 102.586 18.9885C102.65 18.8349 102.708 18.7025 102.766 18.6019C102.825 18.5012 102.92 18.3423 103.052 18.1252C103.185 17.9133 103.449 17.4578 103.846 16.7692C104.243 16.0807 104.852 15.0478 105.672 13.6707C106.492 12.2988 106.985 11.4673 107.143 11.1812C107.482 10.5933 107.757 10.1643 107.974 9.89944C108.376 9.39096 109.054 9.13672 110.007 9.13672C110.218 9.13672 110.329 9.26914 110.329 9.53927C110.329 9.9577 109.943 10.7469 109.165 11.9069L108.604 12.7491C110.144 11.0382 111.446 9.95241 112.51 9.49689C113.029 9.27443 113.494 9.1632 113.907 9.1632C114.32 9.1632 114.653 9.27443 114.897 9.49689C115.14 9.71935 115.262 9.9683 115.262 10.2384C115.262 10.5086 115.167 10.837 114.981 11.213C114.796 11.5944 114.606 11.9334 114.415 12.23C114.225 12.5266 113.971 12.908 113.658 13.3582C113.346 13.8137 113.177 14.0626 113.15 14.0997C113.124 14.1421 113.055 14.248 112.944 14.4228C112.833 14.5976 112.748 14.7247 112.695 14.8042C112.642 14.8836 112.552 15.0266 112.425 15.2279C112.298 15.4292 112.198 15.5934 112.124 15.7311C112.049 15.8635 111.954 16.0277 111.843 16.2237C111.732 16.4197 111.642 16.5891 111.573 16.7322C111.504 16.8752 111.436 17.0288 111.367 17.1983C111.24 17.5108 111.181 17.7703 111.181 17.9716L111.171 17.9875Z" fill="#FF1B1C"/>
<path d="M128.229 10.1117L128.07 9.47078C128.07 9.10531 128.197 8.81929 128.451 8.60743C128.705 8.39556 129.022 8.29492 129.409 8.29492C130.155 8.29492 130.531 8.77162 130.531 9.72503C130.531 10.4136 130.192 11.3617 129.515 12.5693C128.837 13.777 128.038 14.9476 127.117 16.0757C126.196 17.2039 125.217 18.1838 124.185 19.0207C123.153 19.8523 122.354 20.2707 121.798 20.2707C121.242 20.2707 120.845 20.1171 120.613 19.8152C120.38 19.5133 120.263 19.222 120.263 18.9412C120.263 18.6605 120.279 18.3957 120.306 18.1467C120.406 17.2728 120.644 16.4412 121.025 15.6467C120.073 16.8967 119.046 18.0143 117.951 19.0101C116.855 20.0059 115.934 20.5038 115.198 20.5038C114.844 20.5038 114.558 20.3978 114.341 20.1807C114.124 19.9635 114.018 19.6033 114.018 19.0896C114.018 18.5758 114.325 17.6118 114.939 16.1976C115.553 14.7834 116.14 13.6499 116.701 12.7918C116.495 12.9189 116.315 12.9772 116.162 12.9772C116.008 12.9772 115.839 12.8924 115.654 12.7176C115.468 12.5429 115.378 12.4104 115.378 12.3098C115.378 12.2092 115.447 12.0715 115.579 11.8808C115.712 11.6954 116.225 11.2346 117.114 10.4983C118.003 9.7621 118.617 9.39663 118.945 9.39663C119.274 9.39663 119.591 9.46019 119.888 9.58202C120.184 9.70914 120.337 9.87863 120.337 10.0958C120.337 10.313 119.718 11.5895 118.48 13.9147C117.241 16.2399 116.622 17.5058 116.622 17.7018C116.622 17.7283 116.633 17.7442 116.649 17.7442C116.834 17.7442 117.771 16.7908 119.448 14.8787C121.126 12.9719 122.449 11.3988 123.412 10.1699C123.545 9.94749 123.746 9.83626 124.016 9.83626L124.137 9.85215L124.873 9.70384C124.99 9.70384 125.101 9.74621 125.212 9.83626C125.323 9.9263 125.381 10.0057 125.381 10.0746C125.381 10.1435 125.222 10.4666 124.905 11.0386C124.587 11.6106 124.074 12.6912 123.359 14.2749C122.645 15.8639 122.29 16.9762 122.29 17.6171C122.29 17.776 122.349 17.8554 122.465 17.8554C122.804 17.8554 123.508 17.241 124.582 16.0175C125.656 14.7887 126.53 13.6181 127.207 12.4899C127.885 11.367 128.223 10.5725 128.223 10.1064L128.229 10.1117Z" fill="#FF1B1C"/>
<path d="M138.025 9.85721C138.295 9.85721 138.565 9.97903 138.845 10.2174C139.126 10.4557 139.269 10.8265 139.269 11.3191C139.269 11.8117 139.094 12.4579 138.745 13.2471C138.395 14.0363 137.919 14.8414 137.316 15.6571C136.707 16.4728 136.046 17.2408 135.315 17.9558C134.59 18.6762 133.807 19.2641 132.96 19.7196C132.119 20.1804 131.351 20.4082 130.668 20.4082C129.986 20.4082 129.43 20.191 129.017 19.7567C128.604 19.3224 128.398 18.7238 128.398 17.9505C128.398 17.1772 128.588 16.3245 128.964 15.3869C129.345 14.4494 129.832 13.6231 130.43 12.9028C131.028 12.1824 131.674 11.5416 132.367 10.9695C133.817 9.79894 135.093 9.21631 136.188 9.21631C136.681 9.21631 137.046 9.33813 137.3 9.57648C137.39 9.65593 137.432 9.73009 137.432 9.78835V9.8678C137.559 9.85191 137.755 9.84132 138.02 9.84132L138.025 9.85721ZM136.675 11.6316H136.58C136.268 11.6316 136.114 11.4038 136.114 10.9483C135.463 11.1602 134.781 11.5363 134.071 12.0712C133.357 12.6062 132.722 13.2418 132.161 13.9727C131.018 15.4346 130.441 16.6687 130.425 17.6804C130.425 18.1783 130.605 18.4272 130.975 18.4272C131.346 18.4272 131.886 18.1889 132.605 17.7069C133.325 17.2249 134.045 16.5363 134.749 15.6465C135.458 14.7566 135.987 13.9833 136.342 13.3265C136.691 12.6697 136.871 12.2248 136.871 11.9865C136.871 11.7481 136.808 11.6316 136.686 11.6316H136.675Z" fill="#FF1B1C"/>
<path d="M147.504 9.85721C147.774 9.85721 148.044 9.97903 148.324 10.2174C148.605 10.4557 148.748 10.8265 148.748 11.3191C148.748 11.8117 148.573 12.4579 148.224 13.2471C147.874 14.0363 147.398 14.8414 146.795 15.6571C146.186 16.4728 145.524 17.2408 144.794 17.9558C144.069 18.6762 143.286 19.2641 142.439 19.7196C141.597 20.1804 140.83 20.4082 140.147 20.4082C139.465 20.4082 138.909 20.191 138.496 19.7567C138.083 19.3224 137.877 18.7238 137.877 17.9505C137.877 17.1772 138.067 16.3245 138.443 15.3869C138.824 14.4494 139.311 13.6231 139.909 12.9028C140.507 12.1824 141.153 11.5416 141.846 10.9695C143.296 9.79894 144.572 9.21631 145.667 9.21631C146.16 9.21631 146.525 9.33813 146.779 9.57648C146.869 9.65593 146.911 9.73009 146.911 9.78835V9.8678C147.038 9.85191 147.234 9.84132 147.499 9.84132L147.504 9.85721ZM146.154 11.6316H146.059C145.747 11.6316 145.593 11.4038 145.593 10.9483C144.942 11.1602 144.26 11.5363 143.55 12.0712C142.836 12.6062 142.201 13.2418 141.64 13.9727C140.497 15.4346 139.92 16.6687 139.904 17.6804C139.904 18.1783 140.084 18.4272 140.454 18.4272C140.825 18.4272 141.365 18.1889 142.084 17.7069C142.804 17.2249 143.524 16.5363 144.228 15.6465C144.937 14.7566 145.466 13.9833 145.821 13.3265C146.17 12.6697 146.35 12.2248 146.35 11.9865C146.35 11.7481 146.287 11.6316 146.165 11.6316H146.154Z" fill="#FF1B1C"/>
<path d="M165.096 0.153604C165.197 0.259537 165.244 0.370768 165.244 0.481998C165.244 0.593228 165.16 0.799799 164.985 1.09641C164.81 1.39303 164.413 2.04452 163.789 3.05089C163.164 4.05196 162.677 4.84116 162.333 5.41321C160.312 8.70244 158.724 11.4885 157.575 13.7608C156.427 16.033 155.85 17.4102 155.85 17.8816V17.9875C155.85 18.353 155.982 18.5384 156.252 18.5384C156.522 18.5384 156.845 18.4113 157.221 18.1623C157.602 17.9134 157.93 17.6432 158.216 17.3572C158.502 17.0712 158.787 16.7746 159.078 16.4674C159.37 16.1602 159.544 15.9801 159.608 15.9271C159.671 15.8741 159.751 15.8477 159.846 15.8477C159.999 15.8477 160.095 15.943 160.142 16.1337C160.185 16.3244 160.211 16.5945 160.211 16.9388C160.211 17.2831 160.185 17.5055 160.132 17.6168C159.872 18.1146 159.306 18.7238 158.428 19.4441C157.549 20.1645 156.718 20.5193 155.935 20.5193C154.596 20.5193 153.929 19.9526 153.929 18.8191C153.929 18.1146 154.199 17.193 154.733 16.0489C154.014 16.9865 153.278 17.7863 152.526 18.443C151.134 19.656 149.928 20.2651 148.906 20.2651C148.335 20.2651 147.917 20.0638 147.641 19.6613C147.372 19.2587 147.234 18.6814 147.234 17.9293C147.234 17.1771 147.53 16.2714 148.118 15.2227C148.705 14.1686 149.441 13.2205 150.314 12.3783C151.193 11.5362 152.166 10.8317 153.236 10.265C154.305 9.69822 155.289 9.4175 156.189 9.4175C156.475 9.4175 156.808 9.59229 157.189 9.94187C157.448 9.53402 157.925 8.71304 158.618 7.47891C160.804 3.79772 162.243 1.54663 162.947 0.736238C163.323 0.243647 163.905 0 164.699 0C164.868 0 165.001 0.0529668 165.101 0.1589L165.096 0.153604ZM156.369 11.1919C155.088 11.4779 153.892 12.0764 152.786 12.9822C151.68 13.8932 150.854 14.8466 150.298 15.8371C149.748 16.8328 149.467 17.4737 149.467 17.7704C149.467 18.067 149.531 18.21 149.653 18.21C150.187 18.21 151.51 17.0129 153.622 14.6241C154.675 13.4483 155.585 12.2989 156.363 11.1866L156.369 11.1919Z" fill="#FF1B1C"/>
</svg>
