<svg xmlns="http://www.w3.org/2000/svg" version="1.1" xmlns:xlink="http://www.w3.org/1999/xlink" xmlns:svgjs="http://svgjs.dev/svgjs" width="1080" height="1080"><svg id="SvgjsSvg1088" data-name="Layer 1" xmlns="http://www.w3.org/2000/svg" viewBox="0 0 1080 1080">
  <defs>
    <style>
      .cls-1 {
        fill: #fff;
      }

      .cls-1, .cls-2 {
        stroke-width: 0px;
      }

      .cls-2 {
        fill: #ed2a29;
      }
    </style>
  </defs>
  <g id="SvgjsG1087" data-name="MW 320 Horizontal White">
    <path class="cls-1" d="m1023.63,495.2c-4.25-11.09-9.71-19.93-16.38-26.52-6.67-6.59-14.78-11.96-24.31-16.12-9.54-4.16-18.85-6.98-27.95-8.45-9.1-1.47-18.85-2.21-29.25-2.21-32.24,0-57.73,8.32-76.45,24.96-5.5,4.89-10.18,10.29-14.06,16.21-.42-1.13-.89-2.28-1.41-3.47-1.82-4.16-4.21-7.97-7.15-11.44-2.95-3.46-6.98-6.89-12.09-10.27-5.11-3.38-10.97-6.24-17.55-8.58-6.59-2.34-14.78-4.25-24.57-5.72-9.79-1.47-20.59-2.21-32.37-2.21-42.65,0-73.07,12.05-91.27,36.15-.43.58-.84,1.16-1.25,1.75-1.63-3.96-3.59-7.45-5.9-10.46-2.86-3.73-6.59-7.06-11.18-10.01-4.6-2.94-8.97-5.33-13.13-7.15-4.16-1.82-9.23-3.38-15.21-4.68-5.98-1.3-11.1-2.3-15.34-2.99-4.25-.69-9.41-1.21-15.47-1.56-6.07-.35-10.53-.52-13.39-.52h-11.31c-12.31,0-23.58.87-33.81,2.6-10.23,1.73-18.77,3.95-25.61,6.63-6.85,2.69-12.83,5.98-17.94,9.88-5.11,3.9-9.1,7.76-11.96,11.57-2.86,3.82-5.16,7.89-6.89,12.22-1.74,4.34-2.86,8.11-3.38,11.31-.52,3.21-.78,6.46-.78,9.75h66.05c0-2.43.3-4.59.91-6.5.61-1.91,1.95-4.07,4.03-6.5,2.08-2.43,5.63-4.33,10.66-5.72,5.03-1.39,11.27-2.08,18.72-2.08.52,0,1.47.09,2.86.26h8.06c19.24.7,28.86,6.24,28.86,16.64,0,2.25-.61,4.16-1.82,5.72-1.21,1.56-3.34,2.99-6.37,4.29-3.04,1.3-7.54,2.25-13.52,2.86-5.98.61-13.39,1-22.23,1.17-.7-.17-1.21-.26-1.56-.26v34.84c12.31,0,21.93.61,28.86,1.82,6.93,1.22,11.44,2.78,13.52,4.68,2.08,1.91,3.12,4.34,3.12,7.28,0,9.88-8.49,15.43-25.48,16.64-3.82.18-7.72.26-11.7.26-8.67,0-15.52-.47-20.54-1.43-5.03-.95-8.71-2.6-11.05-4.94-2.34-2.34-3.82-4.77-4.42-7.28-.61-2.51-.91-6.11-.91-10.79h-66.05c0,9.19,1.52,17.51,4.55,24.96,3.03,7.46,6.63,13.48,10.79,18.07,4.16,4.59,9.66,8.58,16.51,11.96,6.85,3.38,13,5.85,18.46,7.41,5.46,1.56,12.18,2.78,20.15,3.64,7.97.87,13.87,1.34,17.68,1.43,3.08.07,6.9.11,11.45.13h-.02s115.99,0,115.99,0h267.01l-.12-.08c31.66-.84,56.21-8.61,73.61-23.32,18.46-15.6,27.69-38.05,27.69-67.35,0-14.56-2.12-27.39-6.37-38.48m-343.11,40.44c-5.03,2.34-10.75,5.59-17.16,9.75-5.03,3.26-9.2,6.83-12.52,10.68-.34-1.5-.75-2.99-1.26-4.44-1.56-4.51-4.08-8.49-7.54-11.96-3.47-3.47-7.72-5.81-12.74-7.02,3.81-1.21,7.15-2.99,10.01-5.33,2.86-2.34,5.16-4.94,6.89-7.8.88-1.45,1.64-2.97,2.3-4.55h13.3l36.66.26c.17-1.73.26-2.99.26-3.77s.3-2.34.91-4.68c.6-2.34,1.38-4.16,2.34-5.46.95-1.3,2.42-2.95,4.42-4.94,1.99-1.99,4.42-3.55,7.28-4.68,2.86-1.13,6.54-2.08,11.05-2.86,4.51-.78,9.62-1.17,15.34-1.17,7.28,0,13.43.44,18.46,1.3,5.03.87,8.75,2.04,11.18,3.51,2.43,1.47,4.12,2.9,5.07,4.29.95,1.39,1.43,2.86,1.43,4.42,0,3.29-1.08,6.11-3.25,8.45-2.17,2.34-5.98,4.46-11.44,6.37-5.46,1.91-12.87,3.56-22.23,4.94-.35.17-.87.26-1.56.26-7.8,1.39-13.91,2.47-18.33,3.25-4.42.78-10.75,2.25-18.98,4.42-8.24,2.17-14.87,4.42-19.89,6.76m37.7,32.89c2.6-.35,7.11-.95,13.52-1.82,6.41-.86,12.22-1.64,17.42-2.34,5.55-.86,9.79-1.56,12.74-2.08,2.95-.52,7.24-1.34,12.87-2.47,5.63-1.13,10.14-2.25,13.52-3.38,3.38-1.13,7.58-2.6,12.61-4.42,5.03-1.82,9.06-3.77,12.09-5.85,2.58-1.77,5.36-3.93,8.33-6.46.37,7.41,1.57,14.59,3.63,21.54,1.18,3.99,2.76,9.39,7.53,20.2h-128.77c0-10.81,11.9-12.57,14.5-12.92m247.42-14.69c-1.13,4.77-2.47,8.67-4.03,11.7-1.56,3.04-3.69,5.59-6.37,7.67-2.69,2.08-5.12,3.64-7.28,4.68-2.17,1.04-4.85,1.87-8.06,2.47-3.21.61-5.68.91-7.41.91h-14.04c-1.74,0-4.25-.3-7.54-.91-3.29-.6-5.98-1.39-8.06-2.34-2.08-.95-4.42-2.51-7.02-4.68-2.6-2.17-4.68-4.72-6.24-7.67-1.56-2.94-2.86-6.72-3.9-11.31-1.04-4.59-1.56-13.74-1.56-19.63,0-4.51.3-8.67.91-12.48.61-3.81,1.47-7.11,2.6-9.88,1.13-2.77,2.3-5.33,3.51-7.67,1.21-2.34,2.77-4.29,4.68-5.85,1.91-1.56,3.64-2.94,5.2-4.16,1.56-1.21,3.42-2.17,5.59-2.86,2.17-.69,3.99-1.26,5.46-1.69,1.47-.43,3.25-.74,5.33-.91,2.08-.17,3.6-.26,4.55-.26h3.77c2.77,0,5.03.04,6.76.13,1.73.09,4.2.39,7.41.91,3.21.52,5.89,1.3,8.06,2.34,2.17,1.04,4.59,2.69,7.28,4.94,2.68,2.26,4.81,4.9,6.37,7.93,1.56,3.04,2.9,7.02,4.03,11.96,1.13,4.94,1.69,10.45,1.69,16.51s-.57,15.39-1.69,20.15"></path>
    <path class="cls-2" d="m250.25,571.69l.91,4.3c0,1.81-.94,3.96-2.83,6.45-4.98,6.5-12.97,13.95-23.96,22.37-10.98,8.42-19.08,12.63-24.29,12.63s-9.29-1.53-12.23-4.59c-2.94-3.06-4.42-6.55-4.42-10.48,0-4.68,4.91-15.03,14.72-31.04,14.72-23.78,33.53-51.57,56.41-83.36-4.84,4.98-17.67,18.42-38.51,40.32-46.14,48.33-73.09,75.7-80.87,82.12-1.28,1.06-3.15,1.59-5.61,1.59s-5.04-1-7.76-3c-2.72-2-4.08-4.25-4.08-6.74v-.57c.3-3.17,7.59-18.69,21.86-46.55,14.27-27.86,26.24-50.02,35.91-66.48-14.27,15.71-28.69,33.22-43.27,52.55-27.71,36.7-47.99,67.96-60.82,93.78-1.13,2.42-2.53,3.62-4.19,3.62s-4.08-.42-7.25-1.25c-6.64-1.81-9.97-4.98-9.97-9.51,0-2.72,5.55-12.44,16.65-29.17,11.1-16.72,23.97-35,38.62-54.82,14.65-19.82,29.83-38.91,45.53-57.26,21.67-25.37,35.6-38.06,41.79-38.06.98,0,1.92.25,2.83.74.91.49,1.47.74,1.7.74s.45-.11.68-.34c.98-1.21,2.93-1.81,5.83-1.81s5.74.57,8.49,1.7c2.76,1.13,4.14,2.42,4.14,3.85,0,.91-3.78,8.12-11.33,21.63-25.3,44.85-42.29,75.66-50.97,92.42,8.31-10.04,20.18-23.37,35.62-39.98,15.44-16.61,31.66-33.19,48.65-49.72,22.12-21.44,35.34-32.17,39.64-32.17,1.74,0,3.93.38,6.57,1.13,4.68,1.36,9.17,2.04,13.48,2.04,1.21.23,2.25.74,3.11,1.53.87.79,1.3,1.61,1.3,2.44s-.23,1.51-.68,2.04c-24.54,32.62-45.23,61.39-62.07,86.31-16.84,24.92-27.22,41.76-31.15,50.51,7.93-1.66,19.75-11.14,35.45-28.43.68-.91,1.17-1.51,1.47-1.81.3-.3.57-.6.79-.91,1.28-1.51,2.26-.57,2.94,2.83.3,1.97.51,3.34.62,4.14.11.79.23,1.62.34,2.49.11.87.17,1.46.17,1.76"></path>
    <path class="cls-2" d="m467.95,456.73c-.83,0-1.25-.57-1.25-1.7s.32-1.87.96-2.21c.64-.34,1.74-.91,3.28-1.7,1.55-.79,2.62-1.32,3.23-1.59.6-.26,1.55-.7,2.83-1.3,1.28-.6,2.32-1.02,3.12-1.25.79-.23,1.76-.53,2.89-.91,1.89-.53,4.25-.79,7.08-.79s5.74.98,8.72,2.94c2.98,1.96,4.47,4.53,4.47,7.7,0,6.57-2.87,15.27-8.61,26.11-5.74,10.84-13.1,22.11-22.09,33.81-8.99,11.7-19.07,23.6-30.24,35.68-11.18,12.08-22.09,22.88-32.73,32.39-10.64,9.51-20.67,17.29-30.07,23.33-9.4,6.04-16.63,9.06-21.69,9.06-10.72,0-16.08-4.87-16.08-14.61,0-13.67,7.74-33.41,23.22-59.24-30.13,35.64-55.35,58.63-75.66,68.98-5.29,2.72-9.33,4.08-12.12,4.08s-6.21-1.72-10.25-5.16c-4.04-3.43-6.06-6.81-6.06-10.14,0-18.8,13.06-45.12,39.19-78.95,9.97-12.91,22.39-27.33,37.26-43.27-12.99,11.25-22.88,16.88-29.68,16.88-3.62,0-6.31-1.77-8.04-5.32-1.59-2.57-2.38-5-2.38-7.3s1.51-4.82,4.53-7.53c3.02-2.72,4.8-4.08,5.32-4.08s1.02.19,1.47.57c.45.38.68.72.68,1.02-1.06,1.13-1.59,1.87-1.59,2.21s.45.51,1.36.51,8.46-4.32,22.65-12.97c14.19-8.64,21.97-12.97,23.33-12.97,3.93,0,7.7,1.08,11.33,3.23s5.44,3.96,5.44,5.44-.76,3.42-2.27,5.83c-1.51,2.42-10.5,14.25-26.96,35.51-16.46,21.26-28.43,37.34-35.9,48.25-7.48,10.91-12.95,19.86-16.42,26.84-3.47,6.99-5.21,11.23-5.21,12.74s.23,2.26.68,2.26c3.17,0,14.51-9.57,34.03-28.71,19.52-19.14,38.11-38.06,55.78-56.74,17.67-18.69,27.28-29.05,28.82-31.09,1.55-2.04,3.23-3.49,5.04-4.36,1.81-.87,4.53-1.3,8.15-1.3,10.12,0,15.18,1.93,15.18,5.77,0,1.59-2.21,4.95-6.63,10.08-4.42,5.14-7.53,8.87-9.34,11.21-9.44,12.01-19.95,28.92-31.54,50.74-11.59,21.82-17.39,35.79-17.39,41.91,0,1.66.55,2.49,1.64,2.49s4.34-2.13,9.74-6.4c5.4-4.26,12.52-10.64,21.35-19.14,8.83-8.49,18.88-19.01,30.13-31.54,11.25-12.54,21.99-26.45,32.22-41.74,10.23-15.29,15.35-24.9,15.35-28.82s-1.51-5.89-4.53-5.89l-5.78,1.13Z"></path>
  </g>
</svg><style>@media (prefers-color-scheme: light) { :root { filter: none; } }
@media (prefers-color-scheme: dark) { :root { filter: none; } }
</style></svg>