<svg width="25" height="18" viewBox="0 0 25 18" fill="none" xmlns="http://www.w3.org/2000/svg">
<path d="M24.0963 3.18541C23.8206 2.14632 23.0061 1.32814 21.9732 1.04996C20.1012 0.54541 12.5914 0.54541 12.5914 0.54541C12.5914 0.54541 5.08162 0.54541 3.20963 1.04996C2.17676 1.32814 1.3622 2.14632 1.08658 3.18541C0.584473 5.06996 0.584473 8.99996 0.584473 8.99996C0.584473 8.99996 0.584473 12.93 1.08658 14.8145C1.36356 15.8536 2.17676 16.6718 3.20963 16.95C5.08298 17.4545 12.5914 17.4545 12.5914 17.4545C12.5914 17.4545 20.1012 17.4545 21.9732 16.95C23.0061 16.6718 23.8206 15.8536 24.0963 14.8145C24.5984 12.9313 24.5984 8.99996 24.5984 8.99996C24.5984 8.99996 24.5984 5.06996 24.0963 3.18541Z" fill="#E70000"/>
<path d="M10.1353 12.5684V5.43115L16.4116 8.99979L10.1353 12.5684Z" fill="#FEFEFE"/>
</svg>
